<svg width="24" height="24" viewBox="0 0 24 24" fill="none" xmlns="http://www.w3.org/2000/svg">
<path d="M14.97 16.95L10 13.87V7H12V12.76L16.03 15.25L14.97 16.95ZM22 12C22 17.51 17.51 22 12 22C6.49001 22 2.00001 17.51 2.00001 12H3.00001C3.00001 16.96 7.04001 21 12 21C16.96 21 21 16.96 21 12C21 7.04 16.96 3 12 3C8.81001 3 5.92001 4.64 4.28001 7.38C4.17001 7.56 4.06001 7.75 3.97001 7.94C3.96001 7.96 3.95001 7.98 3.94001 8H8.00001V9H1.96001V3H2.96001V7.74C3.00001 7.65 3.03001 7.57 3.07001 7.49C3.18001 7.27 3.30001 7.07 3.42001 6.86C5.22001 3.86 8.51001 2 12 2C17.51 2 22 6.49 22 12Z" fill="white"/>
</svg>
