<svg width="24" height="24" viewBox="0 0 24 24" fill="none" xmlns="http://www.w3.org/2000/svg">
<path d="M10.5 14.41V9.6L14.67 12L10.5 14.41ZM8.48 8.45L7.77 7.75C6.68 8.83 6 10.34 6 12C6 13.66 6.68 15.17 7.77 16.25L8.48 15.54C7.57 14.64 7 13.39 7 12C7 10.61 7.57 9.36 8.48 8.45ZM16.23 7.75L15.52 8.46C16.43 9.36 17 10.61 17 12C17 13.39 16.43 14.64 15.52 15.55L16.23 16.26C17.32 15.17 18 13.66 18 12C18 10.34 17.32 8.83 16.23 7.75ZM5.65 5.63L4.95 4.92C3.13 6.73 2 9.24 2 12C2 14.76 3.13 17.27 4.95 19.08L5.66 18.37C4.02 16.74 3 14.49 3 12C3 9.51 4.02 7.26 5.65 5.63ZM19.05 4.92L18.34 5.63C19.98 7.26 21 9.51 21 12C21 14.49 19.98 16.74 18.35 18.37L19.06 19.08C20.87 17.27 22 14.76 22 12C22 9.24 20.87 6.73 19.05 4.92Z" fill="white"/>
</svg>
